<svg width="16" height="15" viewBox="0 0 16 15" fill="none" xmlns="http://www.w3.org/2000/svg">
<path d="M3.87052 7.21388H10.8357L8.70385 4.65333C8.60416 4.5334 8.55621 4.37878 8.57052 4.22349C8.58484 4.06819 8.66026 3.92495 8.78019 3.82526C8.90013 3.72558 9.05475 3.67762 9.21004 3.69194C9.36533 3.70626 9.50858 3.78168 9.60826 3.90161L12.5447 7.4253C12.5644 7.45333 12.5821 7.48277 12.5975 7.5134C12.5975 7.54276 12.5975 7.56038 12.6386 7.58974C12.6653 7.65708 12.6792 7.72876 12.6797 7.80116C12.6792 7.87357 12.6653 7.94525 12.6386 8.01258C12.6386 8.04195 12.6386 8.05957 12.5975 8.08893C12.5821 8.11955 12.5644 8.149 12.5447 8.17702L9.60826 11.7007C9.55305 11.767 9.4839 11.8203 9.40574 11.8569C9.32758 11.8934 9.24233 11.9123 9.15606 11.9121C9.01884 11.9124 8.88585 11.8646 8.78019 11.7771C8.72073 11.7278 8.67157 11.6672 8.63554 11.5989C8.59951 11.5306 8.57731 11.4558 8.57022 11.3789C8.56313 11.3019 8.57128 11.2244 8.59421 11.1506C8.61714 11.0769 8.6544 11.0083 8.70385 10.949L10.8357 8.38845H3.87052C3.71476 8.38845 3.56538 8.32657 3.45525 8.21643C3.34511 8.1063 3.28323 7.95692 3.28323 7.80116C3.28323 7.64541 3.34511 7.49603 3.45525 7.38589C3.56538 7.27576 3.71476 7.21388 3.87052 7.21388Z" fill="white"/>
</svg>
