<svg width="11" height="9" viewBox="0 0 11 9" fill="none" xmlns="http://www.w3.org/2000/svg">
<path d="M9.50589 4.21388H2.54072L4.67256 1.65333C4.77224 1.5334 4.8202 1.37878 4.80588 1.22349C4.79156 1.06819 4.71614 0.924948 4.59621 0.825263C4.47628 0.725579 4.32166 0.67762 4.16636 0.691938C4.01107 0.706256 3.86783 0.781677 3.76814 0.90161L0.83173 4.4253C0.811974 4.45333 0.794308 4.48277 0.778875 4.5134C0.778875 4.54276 0.778875 4.56038 0.737765 4.58974C0.711146 4.65708 0.697208 4.72876 0.696655 4.80116C0.697208 4.87357 0.711146 4.94525 0.737765 5.01258C0.737765 5.04195 0.737765 5.05957 0.778875 5.08893C0.794308 5.11955 0.811974 5.149 0.83173 5.17702L3.76814 8.70072C3.82336 8.76701 3.8925 8.82032 3.97066 8.85687C4.04882 8.89341 4.13407 8.91228 4.22035 8.91214C4.35757 8.91241 4.49055 8.86462 4.59621 8.77706C4.65568 8.72776 4.70483 8.66721 4.74086 8.59888C4.77689 8.53055 4.79909 8.45579 4.80618 8.37887C4.81328 8.30195 4.80512 8.22439 4.78219 8.15062C4.75926 8.07686 4.72201 8.00834 4.67256 7.949L2.54072 5.38845H9.50589C9.66164 5.38845 9.81102 5.32657 9.92116 5.21643C10.0313 5.1063 10.0932 4.95692 10.0932 4.80116C10.0932 4.64541 10.0313 4.49603 9.92116 4.38589C9.81102 4.27576 9.66164 4.21388 9.50589 4.21388Z" fill="#F53838"/>
</svg>
