<svg width="9" height="8" viewBox="0 0 9 8" fill="none" xmlns="http://www.w3.org/2000/svg">
<g clip-path="url(#clip0_643_2429)">
<path d="M7.45887 2.96548L5.59498 2.6946L4.76178 1.00543C4.73902 0.95918 4.70158 0.921741 4.65533 0.898984C4.53934 0.841724 4.39839 0.889441 4.3404 1.00543L3.50719 2.6946L1.64331 2.96548C1.59192 2.97282 1.54494 2.99705 1.50897 3.03375C1.46548 3.07845 1.44152 3.13858 1.44234 3.20094C1.44317 3.2633 1.46872 3.32277 1.51337 3.3663L2.86192 4.68108L2.54332 6.53763C2.53585 6.58081 2.54063 6.62523 2.55711 6.66584C2.5736 6.70645 2.60114 6.74163 2.6366 6.76738C2.67206 6.79314 2.71403 6.80844 2.75775 6.81156C2.80147 6.81468 2.84518 6.80548 2.88394 6.78502L4.55109 5.9085L6.21824 6.78502C6.26375 6.80924 6.31661 6.81732 6.36726 6.80851C6.49499 6.78649 6.58088 6.66536 6.55886 6.53763L6.24026 4.68108L7.5888 3.3663C7.62551 3.33033 7.64973 3.28335 7.65708 3.23196C7.6769 3.10349 7.58734 2.98457 7.45887 2.96548Z" fill="#FEA250"/>
</g>
<defs>
<clipPath id="clip0_643_2429">
<rect width="7.51721" height="7.51721" fill="white" transform="translate(0.79248 0.373535)"/>
</clipPath>
</defs>
</svg>
