<svg width="12" height="12" viewBox="0 0 12 12" fill="none" xmlns="http://www.w3.org/2000/svg">
<path d="M5.74098 1.27414C3.15036 1.27414 1.04272 3.38178 1.04272 5.9724C1.04272 8.56301 3.15036 10.6707 5.74098 10.6707C8.3316 10.6707 10.4392 8.56301 10.4392 5.9724C10.4392 3.38178 8.3316 1.27414 5.74098 1.27414ZM4.8018 8.04574L3.38972 6.6367C3.20613 6.45351 3.20576 6.15619 3.38889 5.97254C3.57213 5.78878 3.86967 5.78844 4.05333 5.97178L4.80086 6.71801L6.95595 4.56292C7.1394 4.37947 7.43683 4.37947 7.62028 4.56292C7.80374 4.74637 7.80374 5.0438 7.62028 5.22725L4.8018 8.04574Z" fill="#2FAB73"/>
</svg>
