<svg width="13" height="17" viewBox="0 0 13 17" fill="none" xmlns="http://www.w3.org/2000/svg">
<path d="M10.5625 8.5C11.9087 8.5 13 9.64167 13 11.05C13 12.9473 12.2542 14.4675 11.0303 15.4952C9.82569 16.5067 8.21126 17 6.5 17C4.78874 17 3.17431 16.5067 1.96974 15.4952C0.745826 14.4675 0 12.9473 0 11.05C0 9.72458 0.966675 8.63524 2.20272 8.51167L2.43747 8.5H10.5625ZM10.5625 10.2H2.43747C1.98879 10.2 1.625 10.5806 1.625 11.05C1.625 12.4387 2.15236 13.4686 2.98691 14.1694C3.84082 14.8864 5.07013 15.3 6.5 15.3C7.92987 15.3 9.15918 14.8864 10.0131 14.1694C10.8476 13.4686 11.375 12.4387 11.375 11.05C11.375 10.6327 11.0876 10.2857 10.7085 10.2137L10.5625 10.2ZM6.5 0C8.29493 0 9.75 1.52223 9.75 3.4C9.75 5.27777 8.29493 6.8 6.5 6.8C4.70507 6.8 3.25 5.27777 3.25 3.4C3.25 1.52223 4.70507 0 6.5 0ZM6.5 1.7C5.60254 1.7 4.875 2.46112 4.875 3.4C4.875 4.33888 5.60254 5.1 6.5 5.1C7.39746 5.1 8.125 4.33888 8.125 3.4C8.125 2.46112 7.39746 1.7 6.5 1.7Z" fill="#FF7083"/>
</svg>
