<svg width="17" height="17" viewBox="0 0 17 17" fill="none" xmlns="http://www.w3.org/2000/svg">
<path d="M9.11057 0.0224163C7.89439 -0.0661143 6.6734 0.108253 5.53062 0.533666C4.38784 0.959078 3.35005 1.62556 2.4878 2.4878C1.62556 3.35005 0.959078 4.38784 0.533666 5.53062C0.108253 6.6734 -0.0661143 7.89439 0.0224163 9.11057C0.328472 13.6079 4.25619 17 8.762 17H11.8991C12.3667 17 12.7492 16.6174 12.7492 16.1498C12.7492 15.6823 12.3667 15.2997 11.8991 15.2997H8.77901C5.60793 15.2997 2.7004 13.2423 1.90976 10.1733C0.643029 5.24236 5.23386 0.643029 10.1648 1.91826C13.2423 2.7004 15.2997 5.60793 15.2997 8.77901V9.71418C15.2997 10.3858 14.6961 11.0489 14.0245 11.0489C13.3528 11.0489 12.7492 10.3858 12.7492 9.71418V8.65148C12.7492 6.5176 11.236 4.59625 9.12757 4.29869C8.45676 4.19895 7.77183 4.26089 7.1298 4.47937C6.48777 4.69784 5.90723 5.06653 5.43649 5.55473C4.96575 6.04293 4.61845 6.63652 4.4235 7.28608C4.22855 7.93564 4.19159 8.62237 4.3157 9.2891C4.4648 10.0925 4.84247 10.8358 5.40342 11.4299C5.96437 12.024 6.68478 12.4437 7.47827 12.6387C9.04256 13.0043 10.5303 12.5027 11.508 11.508C12.2646 12.5452 13.7779 13.0893 15.1637 12.5367C16.3029 12.0861 17 10.9214 17 9.69717V8.77051C17 4.25619 13.6079 0.328472 9.11057 0.0224163ZM8.49846 11.0489C7.0872 11.0489 5.94799 9.90971 5.94799 8.49846C5.94799 7.0872 7.0872 5.94799 8.49846 5.94799C9.90971 5.94799 11.0489 7.0872 11.0489 8.49846C11.0489 9.90971 9.90971 11.0489 8.49846 11.0489Z" fill="#FF7083"/>
</svg>
