<svg width="22" height="16" viewBox="0 0 22 16" fill="none" xmlns="http://www.w3.org/2000/svg">
<path d="M1.7052 0.8V15.2C1.7052 15.4122 1.61537 15.6157 1.45548 15.7657C1.29558 15.9157 1.07872 16 0.852598 16C0.626475 16 0.409614 15.9157 0.24972 15.7657C0.0898272 15.6157 0 15.4122 0 15.2V0.8C0 0.587827 0.0898272 0.384344 0.24972 0.234315C0.409614 0.0842856 0.626475 0 0.852598 0C1.07872 0 1.29558 0.0842856 1.45548 0.234315C1.61537 0.384344 1.7052 0.587827 1.7052 0.8ZM10.6575 6.25L8.52598 6.9V4.8C8.52598 4.58783 8.43615 4.38434 8.27626 4.23431C8.11637 4.08429 7.89951 4 7.67338 4C7.44726 4 7.2304 4.08429 7.07051 4.23431C6.91061 4.38434 6.82079 4.58783 6.82079 4.8V6.9L4.68929 6.25C4.58372 6.21589 4.4719 6.2021 4.36052 6.20942C4.24914 6.21675 4.14047 6.24506 4.041 6.29266C3.94154 6.34026 3.85331 6.40617 3.78158 6.48647C3.70986 6.56676 3.65611 6.65979 3.62354 6.76C3.58706 6.85974 3.57223 6.96532 3.57992 7.07052C3.58761 7.17572 3.61767 7.27842 3.66832 7.37254C3.71898 7.46667 3.78921 7.55033 3.87486 7.6186C3.96052 7.68686 4.05988 7.73834 4.16707 7.77L6.29857 8.42L4.97704 10.12C4.91097 10.2053 4.86351 10.3019 4.83739 10.4045C4.81126 10.507 4.80699 10.6133 4.82482 10.7174C4.84265 10.8215 4.88222 10.9212 4.94126 11.0109C5.00031 11.1006 5.07766 11.1785 5.16888 11.24C5.35333 11.3626 5.58169 11.4124 5.80488 11.3788C6.02807 11.3451 6.22829 11.2307 6.36251 11.06L7.67338 9.36L8.98425 11.06C9.11848 11.2307 9.31869 11.3451 9.54188 11.3788C9.76508 11.4124 9.99343 11.3626 10.1779 11.24C10.2691 11.1785 10.3465 11.1006 10.4055 11.0109C10.4645 10.9212 10.5041 10.8215 10.5219 10.7174C10.5398 10.6133 10.5355 10.507 10.5094 10.4045C10.4833 10.3019 10.4358 10.2053 10.3697 10.12L9.0482 8.42L11.1797 7.77C11.2869 7.73834 11.3862 7.68686 11.4719 7.6186C11.5576 7.55033 11.6278 7.46667 11.6784 7.37254C11.7291 7.27842 11.7592 7.17572 11.7668 7.07052C11.7745 6.96532 11.7597 6.85974 11.7232 6.76C11.6907 6.65979 11.6369 6.56676 11.5652 6.48647C11.4935 6.40617 11.4052 6.34026 11.3058 6.29266C11.2063 6.24506 11.0976 6.21675 10.9862 6.20942C10.8749 6.2021 10.7631 6.21589 10.6575 6.25ZM21.9544 6.76C21.9218 6.65979 21.8681 6.56676 21.7964 6.48647C21.7246 6.40617 21.6364 6.34026 21.5369 6.29266C21.4375 6.24506 21.3288 6.21675 21.2174 6.20942C21.106 6.2021 20.9942 6.21589 20.8887 6.25L18.7572 6.9V4.8C18.7572 4.58783 18.6673 4.38434 18.5074 4.23431C18.3475 4.08429 18.1307 4 17.9046 4C17.6784 4 17.4616 4.08429 17.3017 4.23431C17.1418 4.38434 17.052 4.58783 17.052 4.8V6.9L14.9205 6.25C14.8149 6.21589 14.7031 6.2021 14.5917 6.20942C14.4803 6.21675 14.3716 6.24506 14.2722 6.29266C14.1727 6.34026 14.0845 6.40617 14.0128 6.48647C13.941 6.56676 13.8873 6.65979 13.8547 6.76C13.8182 6.85974 13.8034 6.96532 13.8111 7.07052C13.8188 7.17572 13.8488 7.27842 13.8995 7.37254C13.9502 7.46667 14.0204 7.55033 14.106 7.6186C14.1917 7.68686 14.2911 7.73834 14.3983 7.77L16.5297 8.42L15.2082 10.12C15.1421 10.2053 15.0947 10.3019 15.0686 10.4045C15.0424 10.507 15.0382 10.6133 15.056 10.7174C15.0738 10.8215 15.1134 10.9212 15.1724 11.0109C15.2315 11.1006 15.3088 11.1785 15.4001 11.24C15.5845 11.3626 15.8129 11.4124 16.0361 11.3788C16.2593 11.3451 16.4595 11.2307 16.5937 11.06L17.9046 9.36L19.2154 11.06C19.3497 11.2307 19.5499 11.3451 19.7731 11.3788C19.9963 11.4124 20.2246 11.3626 20.4091 11.24C20.5003 11.1785 20.5776 11.1006 20.6367 11.0109C20.6957 10.9212 20.7353 10.8215 20.7531 10.7174C20.771 10.6133 20.7667 10.507 20.7406 10.4045C20.7144 10.3019 20.667 10.2053 20.6009 10.12L19.2794 8.42L21.4109 7.77C21.5181 7.73834 21.6174 7.68686 21.7031 7.6186C21.7887 7.55033 21.859 7.46667 21.9096 7.37254C21.9603 7.27842 21.9903 7.17572 21.998 7.07052C22.0057 6.96532 21.9909 6.85974 21.9544 6.76Z" fill="#FF7083"/>
</svg>
