<svg width="512" height="512" viewBox="0 0 512 512" fill="none" xmlns="http://www.w3.org/2000/svg">
<g clip-path="url(#clip0_24_323)">
<path d="M393.539 220.96H365.202C363.267 220.96 361.618 222.369 361.316 224.283L349.856 296.936C349.629 298.369 350.739 299.662 352.185 299.662H366.726C368.077 299.662 369.233 298.676 369.444 297.334L372.696 276.74C372.994 274.821 374.647 273.413 376.582 273.413H385.547C404.215 273.413 414.982 264.381 417.799 246.484C419.071 238.654 417.849 232.502 414.183 228.194C410.16 223.462 403.022 220.96 393.539 220.96ZM396.807 247.495C395.262 257.662 387.494 257.662 379.979 257.662H375.708L378.711 238.675C378.89 237.527 379.876 236.682 381.04 236.682H382.999C388.112 236.682 392.942 236.682 395.436 239.599C396.923 241.339 397.375 243.924 396.807 247.495Z" fill="#179BD7"/>
<path d="M478.226 247.168H464.667C463.503 247.168 462.512 248.013 462.338 249.161L461.738 252.956L460.785 251.58C457.848 247.317 451.302 245.892 444.764 245.892C429.771 245.892 416.97 257.248 414.476 273.177C413.183 281.123 415.019 288.721 419.526 294.02C423.669 298.892 429.577 300.922 436.615 300.922C448.696 300.922 455.395 293.154 455.395 293.154L454.79 296.924C454.562 298.366 455.673 299.658 457.127 299.658H469.344C471.279 299.658 472.928 298.25 473.23 296.332L480.567 249.894C480.791 248.465 479.68 247.168 478.226 247.168ZM459.314 273.575C458.013 281.326 451.853 286.53 444.006 286.53C440.075 286.53 436.918 285.266 434.896 282.871C432.891 280.493 432.137 277.109 432.767 273.339C433.997 265.654 440.245 260.28 447.971 260.28C451.824 260.28 454.956 261.561 457.019 263.976C459.095 266.416 459.915 269.821 459.314 273.575Z" fill="#179BD7"/>
<path d="M494.223 222.953L482.594 296.936C482.366 298.37 483.476 299.662 484.922 299.662H496.613C498.556 299.662 500.205 298.254 500.503 296.336L511.971 223.686C512.199 222.253 511.088 220.956 509.642 220.956H496.551C495.395 220.96 494.401 221.806 494.223 222.953Z" fill="#179BD7"/>
<path d="M191.445 220.96H163.112C161.173 220.96 159.524 222.369 159.222 224.283L147.763 296.936C147.535 298.369 148.645 299.662 150.099 299.662H163.626C165.565 299.662 167.213 298.253 167.516 296.335L170.606 276.74C170.905 274.821 172.558 273.413 174.492 273.413H183.462C202.125 273.413 212.897 264.381 215.71 246.484C216.977 238.654 215.764 232.502 212.097 228.194C208.07 223.462 200.928 220.96 191.445 220.96ZM194.714 247.495C193.164 257.662 185.396 257.662 177.885 257.662H173.61L176.609 238.675C176.788 237.527 177.782 236.682 178.942 236.682H180.901C186.018 236.682 190.844 236.682 193.338 239.599C194.826 241.339 195.281 243.924 194.714 247.495Z" fill="#253B80"/>
<path d="M276.138 247.168H262.57C261.414 247.168 260.416 248.013 260.238 249.161L259.637 252.956L258.688 251.58C255.751 247.317 249.201 245.892 242.664 245.892C227.671 245.892 214.865 257.248 212.371 273.177C211.075 281.123 212.918 288.721 217.425 294.02C221.56 298.892 227.476 300.922 234.515 300.922C246.595 300.922 253.294 293.154 253.294 293.154L252.689 296.924C252.462 298.366 253.572 299.658 255.018 299.658H267.239C269.182 299.658 270.823 298.25 271.129 296.332L278.462 249.894C278.694 248.465 277.588 247.168 276.138 247.168ZM257.226 273.575C255.917 281.326 249.765 286.53 241.918 286.53C237.978 286.53 234.83 285.266 232.808 282.871C230.803 280.493 230.04 277.109 230.678 273.339C231.901 265.654 238.156 260.28 245.883 260.28C249.736 260.28 252.868 261.561 254.931 263.976C256.998 266.416 257.818 269.821 257.226 273.575Z" fill="#253B80"/>
<path d="M348.398 247.168H334.764C333.463 247.168 332.241 247.814 331.503 248.895L312.699 276.594L304.728 249.977C304.227 248.311 302.69 247.168 300.95 247.168H287.552C285.924 247.168 284.793 248.759 285.31 250.291L300.328 294.363L286.209 314.294C285.099 315.865 286.218 318.023 288.136 318.023H301.753C303.046 318.023 304.256 317.393 304.989 316.333L350.337 250.876C351.422 249.31 350.308 247.168 348.398 247.168Z" fill="#253B80"/>
<path d="M30.1022 313.781L32.2689 300.018L27.4425 299.907H4.39575L20.412 198.353C20.4618 198.046 20.6233 197.76 20.8595 197.557C21.0956 197.354 21.398 197.242 21.7129 197.242H60.5729C73.4738 197.242 82.3768 199.927 87.025 205.226C89.2042 207.711 90.592 210.309 91.2632 213.168C91.9675 216.167 91.9799 219.751 91.2922 224.121L91.2425 224.44V227.241L93.4216 228.475C95.2569 229.449 96.7152 230.563 97.8338 231.839C99.698 233.965 100.904 236.666 101.413 239.868C101.939 243.162 101.765 247.081 100.904 251.518C99.9093 256.622 98.3019 261.067 96.131 264.705C94.1342 268.056 91.5905 270.836 88.5703 272.99C85.6869 275.037 82.2608 276.591 78.3872 277.585C74.6338 278.563 70.3542 279.056 65.6603 279.056H62.636C60.4735 279.056 58.373 279.834 56.7242 281.231C55.0712 282.656 53.9775 284.603 53.6419 286.732L53.414 287.971L49.586 312.227L49.412 313.118C49.3665 313.4 49.2878 313.541 49.1718 313.636C49.0682 313.723 48.919 313.781 48.774 313.781H30.1022Z" fill="#253B80"/>
<path d="M95.4851 224.763C95.3691 225.505 95.2366 226.263 95.0874 227.042C89.9627 253.353 72.4301 262.442 50.038 262.442H38.6368C35.8984 262.442 33.5908 264.431 33.1641 267.132L27.3268 304.153L25.6738 314.647C25.3963 316.42 26.7634 318.019 28.5531 318.019H48.7744C51.169 318.019 53.2031 316.279 53.5801 313.917L53.779 312.89L57.5863 288.729L57.8307 287.403C58.2036 285.033 60.2418 283.293 62.6364 283.293H65.6607C85.2523 283.293 100.589 275.339 105.072 252.321C106.944 242.706 105.975 234.677 101.02 229.03C99.5203 227.328 97.6601 225.915 95.4851 224.763Z" fill="#179BD7"/>
<path d="M90.1232 222.626C89.3402 222.398 88.5324 222.191 87.7038 222.004C86.8711 221.822 86.0177 221.661 85.1394 221.52C82.0654 221.023 78.6972 220.786 75.0888 220.786H44.6305C43.8807 220.786 43.1681 220.956 42.5301 221.263C41.1257 221.938 40.0817 223.268 39.8289 224.896L33.3495 265.935L33.1631 267.133C33.5898 264.431 35.8974 262.443 38.6358 262.443H50.0369C72.4291 262.443 89.9617 253.349 95.0864 227.042C95.2397 226.263 95.3681 225.505 95.4841 224.764C94.1874 224.076 92.7829 223.488 91.2708 222.986C90.8979 222.862 90.5127 222.742 90.1232 222.626Z" fill="#222D65"/>
<path d="M39.8294 224.896C40.0821 223.268 41.1261 221.938 42.5305 221.267C43.1727 220.96 43.8811 220.79 44.631 220.79H75.0892C78.6977 220.79 82.0658 221.026 85.1398 221.524C86.0181 221.664 86.8715 221.826 87.7042 222.008C88.5328 222.195 89.3407 222.402 90.1237 222.63C90.5131 222.746 90.8984 222.866 91.2754 222.986C92.7875 223.487 94.192 224.08 95.4887 224.763C97.0132 215.04 95.4762 208.42 90.219 202.425C84.4231 195.825 73.9624 193 60.5768 193H21.7168C18.9825 193 16.6501 194.989 16.2275 197.694L0.0413823 300.292C-0.277618 302.322 1.28838 304.153 3.33495 304.153H27.3262L33.35 265.935L39.8294 224.896Z" fill="#253B80"/>
</g>
<defs>
<clipPath id="clip0_24_323">
<rect width="512" height="512" fill="white"/>
</clipPath>
</defs>
</svg>
