<svg width="512" height="512" viewBox="0 0 512 512" fill="none" xmlns="http://www.w3.org/2000/svg">
<path d="M129.75 289.015V267.637H138.952C156.071 267.637 166.36 258.079 166.36 243.792C166.36 230.332 155.932 222.52 140.933 222.52H118.67V289.015H129.75ZM140.438 232.409C149.241 232.409 155.211 236.467 155.211 245.078C155.211 252.995 148.581 257.748 139.873 257.748H129.75V232.409H140.438ZM320.128 265.76C320.128 252.004 309.743 241.611 295.987 241.611C292.833 241.607 289.71 242.223 286.794 243.426C283.879 244.629 281.229 246.395 278.996 248.622C276.763 250.849 274.991 253.495 273.781 256.407C272.57 259.319 271.946 262.442 271.942 265.595V265.96C271.942 279.812 281.936 289.901 295.987 289.901C299.113 289.947 302.218 289.376 305.123 288.222C308.029 287.067 310.678 285.352 312.92 283.173C315.162 280.994 316.952 278.394 318.189 275.523C319.426 272.651 320.085 269.564 320.128 266.438C320.128 266.204 320.128 265.978 320.128 265.752V265.76ZM282.431 265.76C282.431 257.844 288.271 251.474 295.987 251.709C304.512 251.961 309.821 257.896 309.639 265.76C309.456 273.625 303.704 279.812 295.987 279.812C288.271 279.812 282.422 273.677 282.422 265.76H282.431ZM424.424 268.567C424.669 266.963 424.768 265.34 424.719 263.718C424.719 250.753 414.83 241.646 402.265 241.646C395.99 241.569 389.942 243.988 385.451 248.37C380.96 252.752 378.393 258.739 378.315 265.013V265.595C378.315 279.742 387.718 289.927 401.96 289.927C411.563 289.927 419.575 285.374 422.938 279.047L414.726 274.494C412.553 278.057 407.904 280.577 402.656 280.577C395.33 280.577 390.186 276.119 389.099 268.602L424.424 268.567ZM389.664 260.546C391.055 254.411 395.608 250.657 401.934 250.657C408.261 250.657 413.231 254.716 413.813 260.546H389.664ZM260.367 242.498L247.498 275.65L236.018 242.498H224.052L241.267 289.006L234.141 305.334H245.525L271.742 242.498H260.367ZM512 242.697C510.519 242.282 508.986 242.08 507.447 242.098C502.893 242.098 497.749 244.705 495.577 249.128V242.498H485.088V289.006H495.577V264.222C495.577 255.611 501.312 252.056 507.247 252.056C508.811 252.025 510.374 252.192 511.896 252.552L512 242.758V242.697ZM477.363 268.567C477.608 266.963 477.707 265.34 477.658 263.718C477.658 250.753 467.769 241.646 455.203 241.646C448.929 241.569 442.881 243.988 438.39 248.37C433.899 252.752 431.332 258.739 431.254 265.013V265.595C431.254 279.742 440.656 289.927 454.899 289.927C464.458 289.927 472.514 285.374 475.885 279.047L467.665 274.494C465.492 278.057 460.843 280.577 455.594 280.577C448.278 280.577 443.124 276.119 442.038 268.602L477.363 268.567ZM442.603 260.546C443.993 254.411 448.547 250.657 454.873 250.657C461.199 250.657 466.17 254.716 466.752 260.546H442.603ZM207.428 265.656C207.476 267.551 207.149 269.436 206.467 271.205C205.785 272.973 204.761 274.59 203.453 275.962C202.146 277.334 200.58 278.435 198.847 279.201C197.113 279.968 195.246 280.385 193.351 280.429H192.682C184.565 280.429 179.126 274.094 179.126 265.656C179.159 261.8 180.699 258.109 183.418 255.373C186.136 252.637 189.816 251.073 193.672 251.014C201.884 251.014 207.428 257.349 207.428 265.656V265.656ZM371.189 262.484C371.189 249.519 364.855 241.629 352.984 241.629C346.745 241.629 341.009 244.305 337.846 248.581V242.498H327.253V289.006H337.846V263.805C337.846 255.984 343.486 251.04 350.212 251.04C356.938 251.04 360.501 255.593 360.501 263.31V289.041H371.189V262.484ZM207.428 242.498V248.581C204.361 244.522 199.408 241.629 191.987 241.629C179.125 241.629 168.437 253.012 168.437 266.369C168.437 279.725 177.64 289.918 190.005 289.918C198.026 289.918 204.057 287.051 207.385 282.306V289.032H217.769V242.498H207.428Z" fill="#252526"/>
<path fill-rule="evenodd" clip-rule="evenodd" d="M48.6634 292.03C69.3004 292.03 86.0299 275.3 86.0299 254.663C86.0299 234.026 69.3004 217.297 48.6634 217.297C28.0264 217.297 11.2969 234.026 11.2969 254.663C11.2969 275.3 28.0264 292.03 48.6634 292.03ZM48.6634 303.327C75.5394 303.327 97.3268 281.539 97.3268 254.663C97.3268 227.787 75.5394 206 48.6634 206C21.7873 206 0 227.787 0 254.663C0 281.539 21.7873 303.327 48.6634 303.327Z" fill="url(#paint0_angular_102_425)"/>
<defs>
<radialGradient id="paint0_angular_102_425" cx="0" cy="0" r="1" gradientUnits="userSpaceOnUse" gradientTransform="translate(48.6634 254.663) rotate(180) scale(48.6634)">
<stop stop-color="#FF4700"/>
<stop offset="0.109375" stop-color="#FF4800"/>
<stop offset="0.192708" stop-color="#F66D00"/>
<stop offset="0.25" stop-color="#E9A600"/>
<stop offset="0.322917" stop-color="#E3D301"/>
<stop offset="0.416667" stop-color="#91DA30"/>
<stop offset="0.5" stop-color="#1DD58F"/>
<stop offset="0.598958" stop-color="#168BF0"/>
<stop offset="0.75" stop-color="#DD53C9"/>
<stop offset="0.890625" stop-color="#F9491D"/>
<stop offset="1" stop-color="#FF4700"/>
</radialGradient>
</defs>
</svg>
