<svg width="512" height="512" viewBox="0 0 512 512" fill="none" xmlns="http://www.w3.org/2000/svg">
<path d="M93.1399 453.003V426.635C93.2946 424.417 92.9746 422.192 92.2014 420.108C91.4282 418.024 90.2194 416.128 88.6558 414.548C87.0922 412.968 85.2096 411.739 83.1336 410.944C81.0576 410.148 78.836 409.805 76.6168 409.936C73.7125 409.747 70.8104 410.34 68.2134 411.654C65.6164 412.968 63.4193 414.955 61.8513 417.407C60.4221 415.028 58.3781 413.078 55.9342 411.764C53.4903 410.449 50.7371 409.818 47.9645 409.936C45.5477 409.815 43.141 410.327 40.9828 411.421C38.8247 412.516 36.9898 414.155 35.6598 416.176V410.991H26.5188V453.003H35.7473V429.711C35.5477 428.274 35.669 426.811 36.1023 425.426C36.5356 424.041 37.2702 422.769 38.2533 421.702C39.2365 420.635 40.4437 419.799 41.7884 419.254C43.1331 418.709 44.5819 418.468 46.0306 418.549C52.095 418.549 55.1717 422.505 55.1717 429.623V453.003H64.4001V429.711C64.2156 428.277 64.3473 426.819 64.7861 425.441C65.225 424.063 65.9602 422.797 66.9402 421.734C67.9203 420.67 69.1213 419.834 70.459 419.284C71.7967 418.733 73.2385 418.483 74.6834 418.549C80.9232 418.549 83.9114 422.505 83.9114 429.623V453.003H93.1399ZM229.722 410.991H214.781V398.247H205.552V410.991H197.027V419.341H205.552V438.501C205.552 448.256 209.332 454.058 220.142 454.058C224.181 454.07 228.141 452.943 231.568 450.805L228.931 442.983C226.48 444.445 223.698 445.262 220.845 445.356C216.275 445.356 214.781 442.543 214.781 438.325V419.341H229.722V410.991ZM307.681 409.936C305.452 409.871 303.247 410.407 301.298 411.49C299.349 412.573 297.729 414.162 296.607 416.089V410.991H287.554V453.003H296.695V429.448C296.695 422.505 299.683 418.637 305.66 418.637C307.615 418.611 309.556 418.969 311.373 419.692L314.185 411.079C312.098 410.332 309.898 409.945 307.681 409.936V409.936ZM189.82 414.331C184.646 411.254 178.697 409.729 172.681 409.936C162.046 409.936 155.191 415.034 155.191 423.383C155.191 430.239 160.289 434.458 169.692 435.776L173.999 436.391C179.009 437.093 181.382 438.412 181.382 440.785C181.382 444.037 178.042 445.884 171.802 445.884C166.783 446.028 161.861 444.48 157.827 441.488L153.521 448.608C158.845 452.326 165.223 454.237 171.714 454.058C183.843 454.058 190.874 448.344 190.874 440.346C190.874 432.963 185.337 429.096 176.197 427.777L171.89 427.162C167.935 426.635 164.771 425.845 164.771 423.032C164.771 419.956 167.759 418.11 172.769 418.11C177.369 418.179 181.876 419.42 185.865 421.713L189.82 414.331ZM434.683 409.936C432.454 409.871 430.249 410.407 428.3 411.49C426.351 412.573 424.73 414.162 423.609 416.089V410.991H414.556V453.003H423.696V429.448C423.696 422.505 426.685 418.637 432.661 418.637C434.616 418.61 436.558 418.969 438.375 419.692L441.187 411.079C439.1 410.332 436.9 409.945 434.683 409.936V409.936ZM316.909 431.996C316.788 434.956 317.287 437.908 318.375 440.663C319.463 443.418 321.116 445.915 323.227 447.993C325.338 450.071 327.861 451.684 330.633 452.729C333.405 453.773 336.365 454.226 339.322 454.058C344.81 454.333 350.202 452.546 354.439 449.047L350.044 441.664C346.884 444.073 343.031 445.399 339.058 445.444C335.633 445.236 332.416 443.729 330.064 441.23C327.712 438.731 326.402 435.428 326.402 431.997C326.402 428.565 327.712 425.263 330.064 422.764C332.416 420.265 335.633 418.757 339.058 418.549C343.031 418.594 346.884 419.92 350.044 422.329L354.439 414.946C350.202 411.448 344.81 409.661 339.322 409.936C336.365 409.768 333.405 410.221 330.633 411.265C327.862 412.309 325.339 413.922 323.228 416C321.117 418.078 319.464 420.574 318.376 423.329C317.287 426.084 316.788 429.036 316.909 431.996V431.996ZM402.515 431.996V410.991H393.374V416.089C391.814 414.078 389.795 412.47 387.486 411.4C385.177 410.33 382.645 409.828 380.103 409.936C374.439 410.214 369.099 412.659 365.189 416.766C361.278 420.873 359.097 426.326 359.097 431.997C359.097 437.668 361.278 443.121 365.189 447.228C369.099 451.335 374.439 453.78 380.103 454.058C382.645 454.166 385.177 453.664 387.486 452.594C389.795 451.523 391.814 449.915 393.374 447.904V453.003H402.515V431.996ZM368.501 431.996C368.643 429.517 369.507 427.133 370.987 425.14C372.468 423.146 374.499 421.629 376.831 420.776C379.163 419.923 381.694 419.771 384.111 420.339C386.528 420.907 388.726 422.17 390.435 423.972C392.143 425.774 393.286 428.037 393.723 430.481C394.161 432.926 393.874 435.445 392.897 437.727C391.92 440.01 390.296 441.957 388.226 443.329C386.155 444.7 383.729 445.435 381.246 445.444C379.505 445.467 377.779 445.13 376.175 444.453C374.571 443.776 373.125 442.775 371.928 441.511C370.731 440.248 369.808 438.75 369.218 437.112C368.628 435.475 368.384 433.733 368.501 431.996V431.996ZM258.199 409.936C252.499 410.236 247.136 412.732 243.237 416.901C239.337 421.069 237.203 426.585 237.283 432.293C237.362 438.001 239.649 443.455 243.663 447.513C247.678 451.571 253.108 453.917 258.814 454.058C265.085 454.278 271.217 452.181 276.041 448.168L271.558 441.401C268.087 444.183 263.789 445.729 259.341 445.795C256.321 446.049 253.32 445.118 250.974 443.199C248.629 441.279 247.122 438.522 246.773 435.512H277.974C278.062 434.37 278.15 433.227 278.15 431.996C278.062 418.901 269.976 409.936 258.199 409.936V409.936ZM258.023 418.11C260.784 418.056 263.453 419.099 265.447 421.01C267.44 422.921 268.595 425.545 268.658 428.305H246.861C247.021 425.485 248.279 422.839 250.365 420.934C252.451 419.028 255.199 418.015 258.023 418.11V418.11ZM487.329 431.996V394.116H478.189V416.089C476.628 414.078 474.609 412.47 472.3 411.4C469.992 410.33 467.46 409.828 464.917 409.936C459.253 410.214 453.913 412.659 450.003 416.766C446.092 420.873 443.911 426.326 443.911 431.997C443.911 437.668 446.092 443.121 450.003 447.228C453.913 451.335 459.253 453.78 464.917 454.058C467.46 454.166 469.992 453.664 472.301 452.594C474.609 451.523 476.628 449.915 478.189 447.904V453.003H487.329V431.996ZM502.566 446.914C503.134 446.91 503.697 447.022 504.22 447.242C504.723 447.452 505.182 447.756 505.571 448.137C505.957 448.518 506.266 448.97 506.481 449.468C506.701 449.98 506.814 450.531 506.814 451.088C506.814 451.645 506.701 452.196 506.481 452.708C506.265 453.203 505.956 453.653 505.571 454.033C505.181 454.414 504.722 454.719 504.22 454.933C503.698 455.156 503.135 455.27 502.566 455.266C501.73 455.274 500.91 455.036 500.208 454.581C499.507 454.126 498.955 453.474 498.621 452.708C498.402 452.196 498.289 451.644 498.289 451.088C498.289 450.531 498.402 449.98 498.621 449.468C498.836 448.971 499.143 448.519 499.528 448.137C499.917 447.753 500.377 447.449 500.884 447.242C501.417 447.021 501.989 446.91 502.566 446.914V446.914ZM502.566 454.345C503 454.348 503.429 454.261 503.826 454.089C504.208 453.923 504.555 453.687 504.849 453.393C505.456 452.78 505.796 451.952 505.796 451.09C505.796 450.227 505.456 449.4 504.849 448.787C504.555 448.493 504.208 448.259 503.826 448.097C503.428 447.927 502.999 447.842 502.566 447.846C502.126 447.842 501.689 447.928 501.282 448.097C500.894 448.256 500.541 448.491 500.244 448.787C499.637 449.399 499.296 450.227 499.296 451.09C499.296 451.952 499.637 452.78 500.244 453.393C500.542 453.689 500.895 453.926 501.282 454.089C501.688 454.261 502.125 454.348 502.566 454.345V454.345ZM502.812 449.135C503.223 449.108 503.631 449.226 503.964 449.468C504.097 449.577 504.203 449.716 504.273 449.873C504.343 450.03 504.375 450.202 504.368 450.374C504.373 450.521 504.346 450.668 504.291 450.804C504.235 450.941 504.152 451.064 504.046 451.166C503.791 451.392 503.469 451.527 503.13 451.55L504.399 453.014H503.406L502.229 451.56H501.851V453.014H501.022V449.135H502.812ZM501.851 449.862V450.896H502.803C502.985 450.905 503.167 450.86 503.325 450.767C503.389 450.724 503.44 450.666 503.474 450.596C503.508 450.527 503.524 450.45 503.518 450.374C503.523 450.298 503.507 450.223 503.473 450.155C503.439 450.088 503.388 450.031 503.325 449.989C503.167 449.897 502.985 449.853 502.803 449.862H501.851ZM453.316 431.996C453.458 429.517 454.322 427.134 455.803 425.14C457.283 423.147 459.314 421.63 461.646 420.777C463.978 419.924 466.509 419.772 468.926 420.34C471.343 420.908 473.541 422.171 475.249 423.973C476.957 425.776 478.1 428.038 478.537 430.483C478.975 432.927 478.687 435.446 477.71 437.728C476.733 440.011 475.109 441.958 473.039 443.329C470.969 444.7 468.543 445.435 466.06 445.444C464.319 445.467 462.593 445.13 460.989 444.453C459.386 443.776 457.94 442.774 456.742 441.511C455.545 440.248 454.623 438.75 454.033 437.112C453.443 435.475 453.199 433.733 453.316 431.996V431.996ZM144.644 431.996V410.991H135.503V416.089C133.943 414.078 131.924 412.47 129.615 411.4C127.306 410.33 124.774 409.828 122.232 409.936C116.568 410.214 111.228 412.659 107.317 416.766C103.407 420.873 101.226 426.326 101.226 431.997C101.226 437.668 103.407 443.121 107.317 447.228C111.228 451.335 116.568 453.78 122.232 454.058C124.774 454.166 127.306 453.664 129.615 452.594C131.924 451.523 133.943 449.915 135.503 447.904V453.003H144.644V431.996ZM110.631 431.996C110.773 429.517 111.637 427.134 113.117 425.14C114.597 423.147 116.629 421.63 118.961 420.777C121.293 419.924 123.823 419.772 126.24 420.34C128.658 420.908 130.856 422.171 132.564 423.973C134.272 425.776 135.415 428.039 135.852 430.483C136.289 432.927 136.002 435.446 135.025 437.728C134.048 440.011 132.424 441.958 130.354 443.329C128.284 444.7 125.857 445.435 123.374 445.444C121.634 445.467 119.907 445.13 118.304 444.453C116.7 443.776 115.254 442.774 114.057 441.511C112.86 440.248 111.937 438.75 111.348 437.112C110.758 435.475 110.514 433.733 110.631 431.996V431.996Z" fill="#231F20"/>
<path d="M325.228 90.8198H186.781V339.612H325.228V90.8198Z" fill="#FF5F00"/>
<path d="M195.571 215.225C195.549 191.264 200.978 167.613 211.448 146.061C221.919 124.509 237.155 105.622 256.003 90.8285C232.662 72.4816 204.629 61.072 175.11 57.9037C145.591 54.7353 115.776 59.9362 89.0725 72.9117C62.3692 85.8873 39.8553 106.114 24.1041 131.28C8.35298 156.446 0 185.536 0 215.225C0 244.914 8.35298 274.004 24.1041 299.17C39.8553 324.336 62.3692 344.562 89.0725 357.538C115.776 370.513 145.591 375.714 175.11 372.546C204.629 369.378 232.662 357.968 256.003 339.621C237.155 324.828 221.919 305.941 211.449 284.389C200.979 262.837 195.549 239.185 195.571 215.225V215.225Z" fill="#EB001B"/>
<path d="M512 215.225C512.001 244.913 503.649 274.003 487.899 299.169C472.149 324.335 449.636 344.562 422.933 357.538C396.23 370.513 366.415 375.714 336.896 372.546C307.378 369.378 279.346 357.968 256.005 339.621C274.837 324.813 290.061 305.922 300.529 284.374C310.998 262.825 316.437 239.181 316.437 215.225C316.437 191.268 310.998 167.624 300.529 146.076C290.061 124.527 274.837 105.637 256.005 90.8285C279.346 72.4816 307.378 61.0719 336.896 57.9036C366.415 54.7353 396.23 59.9363 422.933 72.912C449.636 85.8876 472.149 106.114 487.899 131.28C503.649 156.447 512.001 185.536 512 215.225V215.225Z" fill="#F79E1B"/>
<path d="M496.905 313.265V308.171H498.959V307.134H493.729V308.171H495.783V313.265H496.905ZM507.06 313.265V307.124H505.457L503.613 311.348L501.768 307.124H500.164V313.265H501.296V308.632L503.026 312.626H504.199L505.929 308.622V313.265H507.06Z" fill="#F79E1B"/>
</svg>
