<svg width="512" height="512" viewBox="0 0 512 512" fill="none" xmlns="http://www.w3.org/2000/svg">
<path d="M482.684 247.106L493.63 273.541H493.759L504.446 247.106H512L488.957 300.168H481.789L490.366 281.606L475.195 247.106H482.684ZM457.85 245.89C462.97 245.89 467.001 247.234 469.946 249.986C472.892 252.738 474.363 256.451 474.363 261.251V283.974H467.769V278.853H467.451C464.57 283.078 460.793 285.19 456.055 285.19C452.024 285.19 448.631 283.974 445.88 281.606C443.126 279.174 441.782 276.165 441.782 272.581C441.782 268.804 443.191 265.732 446.136 263.492C449.017 261.251 452.857 260.099 457.656 260.099C461.752 260.099 465.145 260.867 467.834 262.34V260.739C467.834 258.307 466.874 256.323 464.953 254.595C463.034 252.93 460.793 252.098 458.233 252.098C454.393 252.098 451.321 253.699 449.079 256.963L442.999 253.122C446.327 248.322 451.321 245.89 457.85 245.89ZM422.9 230.08C427.573 230.08 431.542 231.616 434.805 234.752C438.133 237.889 439.734 241.665 439.734 246.082C439.734 250.626 438.069 254.467 434.805 257.475C431.604 260.548 427.637 262.084 422.9 262.084H411.507V283.91H404.593V230.08H422.9ZM458.745 265.54C455.929 265.54 453.625 266.244 451.703 267.588C449.847 268.996 448.887 270.66 448.887 272.645C448.887 274.437 449.655 275.973 451.191 277.125C452.727 278.341 454.519 278.918 456.567 278.918C459.448 278.918 462.073 277.829 464.377 275.717C466.681 273.541 467.769 271.044 467.769 268.1C465.594 266.372 462.585 265.54 458.745 265.54ZM423.091 236.801H411.507V255.555H423.091C425.845 255.555 428.149 254.659 429.941 252.803C431.798 250.946 432.693 248.77 432.693 246.21C432.693 243.714 431.798 241.537 429.941 239.681C428.149 237.761 425.845 236.801 423.091 236.801Z" fill="#5F6368"/>
<path d="M306.916 245.954C311.588 245.954 315.302 248.002 317.223 250.306H317.541V247.106H325.735V282.31C325.735 296.776 317.223 302.729 307.11 302.729C297.635 302.729 291.939 296.328 289.762 291.143L297.252 288.007C298.595 291.207 301.86 294.984 307.11 294.984C313.574 294.984 317.541 290.951 317.541 283.462V280.646H317.223C315.302 283.014 311.588 285.126 306.916 285.126C297.123 285.126 288.163 276.613 288.163 265.604C288.163 254.531 297.123 245.954 306.916 245.954ZM363.245 246.018C373.423 246.018 378.351 254.083 380.014 258.499L380.911 260.74L354.732 271.557C356.716 275.462 359.852 277.51 364.204 277.51C368.559 277.382 371.631 275.27 373.87 272.005L380.526 276.486C378.351 279.686 373.167 285.191 364.204 285.191C353.067 285.191 344.811 276.614 344.811 265.604C344.811 253.955 353.196 246.018 363.245 246.018ZM171.609 224.32C180.89 224.32 187.482 227.968 192.411 232.705L186.522 238.593C182.938 235.265 178.137 232.641 171.544 232.641C159.319 232.641 149.718 242.498 149.718 254.724C149.718 266.949 159.255 276.806 171.544 276.806C179.481 276.806 184.026 273.606 186.906 270.725C189.275 268.357 190.811 264.965 191.451 260.292H171.353V251.971H199.516C199.836 253.443 199.964 255.236 199.964 257.156C199.964 263.365 198.236 271.109 192.795 276.614C187.418 282.183 180.634 285.127 171.609 285.127C154.838 285.127 140.757 271.493 140.757 254.724C140.757 237.953 154.838 224.32 171.609 224.32ZM222.497 245.954C233.315 245.954 242.148 254.211 242.148 265.54C242.148 276.806 233.315 285.126 222.497 285.126C211.68 285.126 202.847 276.806 202.847 265.54C202.847 254.211 211.68 245.954 222.497 245.954ZM265.252 245.954C276.069 245.954 284.902 254.211 284.902 265.54C284.902 276.806 276.069 285.126 265.252 285.126C254.434 285.126 245.6 276.806 245.6 265.54C245.6 254.211 254.434 245.954 265.252 245.954ZM340.523 226.368V283.911H331.946V226.368H340.523ZM222.561 253.699C216.673 253.699 211.552 258.499 211.552 265.54C211.552 272.517 216.673 277.382 222.561 277.382C228.45 277.382 233.571 272.517 233.571 265.54C233.571 258.499 228.45 253.699 222.561 253.699ZM265.252 253.699C259.362 253.699 254.242 258.499 254.242 265.54C254.242 272.517 259.362 277.382 265.252 277.382C271.14 277.382 276.26 272.517 276.26 265.54C276.26 258.499 271.14 253.699 265.252 253.699ZM307.748 253.635C301.796 253.635 296.867 258.691 296.867 265.604C296.867 272.453 301.86 277.382 307.748 277.382C313.574 277.382 318.182 272.453 318.182 265.604C318.182 258.691 313.574 253.635 307.748 253.635ZM363.501 253.507C359.149 253.507 353.067 257.411 353.323 264.964L370.798 257.667C369.839 255.235 366.958 253.507 363.501 253.507Z" fill="#5F6368"/>
<path d="M95.363 227.296C85.0066 221.318 71.7635 224.87 65.7787 235.227L50.6922 261.361C46.3268 268.907 51.9466 271.544 58.2131 275.302L72.7299 283.68C77.6458 286.516 83.9249 284.832 86.7605 279.923L102.27 253.065C107.48 244.04 104.388 232.506 95.363 227.296Z" fill="#EA4335"/>
<path d="M78.2923 238.113L63.7755 229.734C55.7618 225.286 51.2236 224.991 47.9335 230.221L26.5231 267.3C20.5447 277.65 24.1035 290.887 34.4536 296.853C43.4786 302.063 55.0129 298.971 60.2231 289.946L82.0433 252.15C84.8916 247.234 83.2082 240.948 78.2923 238.113Z" fill="#FBBC04"/>
<path d="M81.0864 219.052L70.89 213.163C59.612 206.653 45.1911 210.513 38.6815 221.791L19.268 255.414C16.4004 260.375 18.103 266.724 23.0637 269.586L34.4827 276.178C40.1216 279.437 47.3288 277.503 50.5869 271.864L72.7655 233.453C77.3613 225.497 87.5321 222.77 95.4882 227.366L81.0864 219.052Z" fill="#34A853"/>
<path d="M41.4394 231.411L30.4174 225.062C25.5015 222.233 19.2224 223.91 16.3869 228.813L3.16292 251.663C-3.34668 262.909 0.512987 277.298 11.7911 283.789L20.1825 288.621L30.3597 294.484L34.7763 297.025C26.9353 291.777 24.4454 281.26 29.2395 272.978L32.6639 267.064L45.2031 245.397C48.0322 240.507 46.3489 234.24 41.4394 231.411Z" fill="#4285F4"/>
</svg>
